<svg width="70" height="70" viewBox="0 0 70 70" fill="none" xmlns="http://www.w3.org/2000/svg">
<path d="M20.8873 41.3579C22.4494 42.92 24.9821 42.92 26.5442 41.3579L35.0294 32.8726L43.5147 41.3579C45.0768 42.92 47.6095 42.92 49.1716 41.3579C50.7337 39.7958 50.7337 37.2631 49.1716 35.701L37.8579 24.3873C36.2958 22.8252 33.7631 22.8252 32.201 24.3873L20.8873 35.701C19.3252 37.2631 19.3252 39.7958 20.8873 41.3579Z" fill="black"/>
<path fill-rule="evenodd" clip-rule="evenodd" d="M0 35C2.30508e-07 15.67 15.67 -2.30508e-07 35 0C54.33 2.30508e-07 70 15.67 70 35C70 54.33 54.33 70 35 70C15.67 70 -2.30508e-07 54.33 0 35ZM6 35C6 18.9837 18.9837 6 35 6C51.0163 6 64 18.9837 64 35C64 51.0163 51.0163 64 35 64C18.9837 64 6 51.0163 6 35Z" fill="black"/>
</svg>
