<svg width="70" height="70" viewBox="0 0 70 70" fill="none" xmlns="http://www.w3.org/2000/svg">
<path d="M49.1127 28.6421C47.5506 27.08 45.0179 27.08 43.4558 28.6421L34.9705 37.1274L26.4853 28.6421C24.9232 27.08 22.3905 27.08 20.8284 28.6421C19.2663 30.2042 19.2663 32.7369 20.8284 34.299L32.1421 45.6127C33.7042 47.1748 36.2369 47.1748 37.799 45.6127L49.1127 34.299C50.6748 32.7369 50.6748 30.2042 49.1127 28.6421Z" fill="black"/>
<path fill-rule="evenodd" clip-rule="evenodd" d="M70 35C70 54.33 54.33 70 35 70C15.67 70 2.68824e-06 54.33 0 35C-2.68824e-06 15.67 15.67 2.68824e-06 35 0C54.33 -2.68824e-06 70 15.67 70 35ZM64 35C64 51.0163 51.0163 64 35 64C18.9837 64 6 51.0163 6 35C6 18.9837 18.9837 6 35 6C51.0163 6 64 18.9837 64 35Z" fill="black"/>
</svg>
