<svg width="70" height="70" viewBox="0 0 70 70" fill="none" xmlns="http://www.w3.org/2000/svg">
<path d="M28.6421 49.1127C27.08 47.5506 27.08 45.0179 28.6421 43.4558L37.1274 34.9706L28.6421 26.4853C27.08 24.9232 27.08 22.3905 28.6421 20.8284C30.2042 19.2663 32.7369 19.2663 34.299 20.8284L45.6127 32.1421C47.1748 33.7042 47.1748 36.2369 45.6127 37.799L34.299 49.1127C32.7369 50.6748 30.2042 50.6748 28.6421 49.1127Z" fill="black"/>
<path fill-rule="evenodd" clip-rule="evenodd" d="M35 70C54.33 70 70 54.33 70 35C70 15.67 54.33 0 35 0C15.67 0 0 15.67 0 35C0 54.33 15.67 70 35 70ZM35 64C51.0163 64 64 51.0163 64 35C64 18.9837 51.0163 6 35 6C18.9837 6 6 18.9837 6 35C6 51.0163 18.9837 64 35 64Z" fill="black"/>
</svg>
