<svg width="70" height="70" viewBox="0 0 70 70" fill="none" xmlns="http://www.w3.org/2000/svg">
<path d="M41.3579 49.1127C42.92 47.5506 42.92 45.0179 41.3579 43.4558L32.8726 34.9706L41.3579 26.4853C42.92 24.9232 42.92 22.3905 41.3579 20.8284C39.7958 19.2663 37.2631 19.2663 35.701 20.8284L24.3873 32.1421C22.8252 33.7042 22.8252 36.2369 24.3873 37.799L35.701 49.1127C37.2631 50.6748 39.7958 50.6748 41.3579 49.1127Z" fill="black"/>
<path fill-rule="evenodd" clip-rule="evenodd" d="M35 70C15.67 70 0 54.33 0 35C0 15.67 15.67 0 35 0C54.33 0 70 15.67 70 35C70 54.33 54.33 70 35 70ZM35 64C18.9837 64 6 51.0163 6 35C6 18.9837 18.9837 6 35 6C51.0163 6 64 18.9837 64 35C64 51.0163 51.0163 64 35 64Z" fill="black"/>
</svg>
