<svg width="70" height="70" viewBox="0 0 70 70" fill="none" xmlns="http://www.w3.org/2000/svg">
<path d="M14 23C14 21.3431 15.3431 20 17 20H53C54.6569 20 56 21.3431 56 23C56 24.6569 54.6569 26 53 26H17C15.3431 26 14 24.6569 14 23Z" fill="black"/>
<path fill-rule="evenodd" clip-rule="evenodd" d="M27 3C27 1.34315 25.6569 0 24 0C22.3431 0 21 1.34315 21 3V4H17C8.71573 4 2 10.7157 2 19V55C2 63.2843 8.71573 70 17 70H53C61.2843 70 68 63.2843 68 55V19C68 10.7157 61.2843 4 53 4H49V3C49 1.34315 47.6569 0 46 0C44.3431 0 43 1.34315 43 3V4H27V3ZM43 10H27V11C27 12.6569 25.6569 14 24 14C22.3431 14 21 12.6569 21 11V10H17C12.0294 10 8 14.0294 8 19V55C8 59.9706 12.0294 64 17 64H53C57.9706 64 62 59.9706 62 55V19C62 14.0294 57.9706 10 53 10H49V11C49 12.6569 47.6569 14 46 14C44.3431 14 43 12.6569 43 11V10Z" fill="black"/>
</svg>
