<svg width="70" height="70" viewBox="0 0 70 70" fill="none" xmlns="http://www.w3.org/2000/svg">
<path d="M35 54C32.7909 54 31 52.2091 31 50L31 32C31 29.7909 32.7909 28 35 28C37.2091 28 39 29.7909 39 32V50C39 52.2091 37.2091 54 35 54Z" fill="black"/>
<path d="M31 20C31 22.2091 32.7909 24 35 24C37.2091 24 39 22.2091 39 20C39 17.7909 37.2091 16 35 16C32.7909 16 31 17.7909 31 20Z" fill="black"/>
<path fill-rule="evenodd" clip-rule="evenodd" d="M35 70C54.33 70 70 54.33 70 35C70 15.67 54.33 0 35 0C15.67 0 0 15.67 0 35C0 54.33 15.67 70 35 70ZM35 64C51.0163 64 64 51.0163 64 35C64 18.9837 51.0163 6 35 6C18.9837 6 6 18.9837 6 35C6 51.0163 18.9837 64 35 64Z" fill="black"/>
</svg>
