<svg width="70" height="70" viewBox="0 0 70 70" fill="none" xmlns="http://www.w3.org/2000/svg">
<path d="M12 19C12 16.7909 13.7909 15 16 15H54C56.2091 15 58 16.7909 58 19C58 21.2091 56.2091 23 54 23H16C13.7909 23 12 21.2091 12 19Z" fill="black"/>
<path d="M12 35C12 32.7909 13.7909 31 16 31H54C56.2091 31 58 32.7909 58 35C58 37.2091 56.2091 39 54 39H16C13.7909 39 12 37.2091 12 35Z" fill="black"/>
<path d="M16 47C13.7909 47 12 48.7909 12 51C12 53.2091 13.7909 55 16 55H54C56.2091 55 58 53.2091 58 51C58 48.7909 56.2091 47 54 47H16Z" fill="black"/>
</svg>
