<svg width="70" height="70" viewBox="0 0 70 70" fill="none" xmlns="http://www.w3.org/2000/svg">
<path fill-rule="evenodd" clip-rule="evenodd" d="M49.7169 53.9596C45.6529 57.1188 40.5461 59 35 59C21.7452 59 11 48.2548 11 35C11 21.7452 21.7452 11 35 11C48.2548 11 59 21.7452 59 35C59 40.5461 57.1188 45.6529 53.9596 49.7169L61.1213 56.8787C62.2929 58.0503 62.2929 59.9497 61.1213 61.1213C59.9497 62.2929 58.0503 62.2929 56.8787 61.1213L49.7169 53.9596ZM53 35C53 44.9411 44.9411 53 35 53C25.0589 53 17 44.9411 17 35C17 25.0589 25.0589 17 35 17C44.9411 17 53 25.0589 53 35Z" fill="black"/>
</svg>
