<svg width="70" height="70" viewBox="0 0 70 70" fill="none" xmlns="http://www.w3.org/2000/svg">
<path fill-rule="evenodd" clip-rule="evenodd" d="M48 35C48 42.1797 42.1797 48 35 48C27.8203 48 22 42.1797 22 35C22 27.8203 27.8203 22 35 22C42.1797 22 48 27.8203 48 35ZM42 35C42 38.866 38.866 42 35 42C31.134 42 28 38.866 28 35C28 31.134 31.134 28 35 28C38.866 28 42 31.134 42 35Z" fill="black"/>
<path fill-rule="evenodd" clip-rule="evenodd" d="M35.9714 0H34.0286C28.9424 0 24.7431 3.79713 24.1109 8.71123C20.189 5.68353 14.5347 5.9679 10.9382 9.56435L9.56439 10.9382C5.96793 14.5346 5.68357 20.189 8.71129 24.1108C3.79716 24.7431 0 28.9424 0 34.0286V35.9714C0 41.0576 3.79714 45.2569 8.71126 45.8892C5.68354 49.811 5.96791 55.4654 9.56437 59.0618L10.9382 60.4356C14.5346 64.0321 20.189 64.3165 24.1108 61.2887C24.7431 66.2029 28.9424 70 34.0286 70H35.9714C41.0576 70 45.2569 66.2028 45.8892 61.2887C49.811 64.3165 55.4654 64.0321 59.0619 60.4356L60.4357 59.0618C64.0321 55.4654 64.3165 49.811 61.2888 45.8891C66.2029 45.2569 70 41.0576 70 35.9714V34.0286C70 28.9424 66.2029 24.7431 61.2887 24.1108C64.3165 20.189 64.0321 14.5346 60.4356 10.9382L59.0618 9.56434C55.4654 5.96788 49.811 5.68352 45.8892 8.71125C45.2569 3.79714 41.0576 0 35.9714 0ZM30.0286 10C30.0286 7.79086 31.8194 6 34.0286 6H35.9714C38.1806 6 39.9714 7.79086 39.9714 10V11.4468C39.9714 13.2924 41.2527 14.8612 42.9604 15.5613C43.0122 15.5825 43.0639 15.6039 43.1155 15.6256C44.8177 16.3394 46.8331 16.1363 48.1383 14.8311L49.1623 13.807C50.7244 12.2449 53.2571 12.2449 54.8192 13.807L56.193 15.1808C57.7551 16.7429 57.7551 19.2755 56.193 20.8376L55.1689 21.8617C53.8637 23.1669 53.6606 25.1823 54.3744 26.8845C54.3815 26.9013 54.3885 26.9181 54.3955 26.9349C54.41 26.9697 54.4244 27.0046 54.4387 27.0396C55.1388 28.7473 56.7076 30.0286 58.5532 30.0286H60C62.2091 30.0286 64 31.8194 64 34.0286V35.9714C64 38.1806 62.2091 39.9714 60 39.9714H58.5532C56.7076 39.9714 55.1388 41.2527 54.4387 42.9604C54.4175 43.0122 54.3961 43.0639 54.3744 43.1155C53.6606 44.8177 53.8637 46.833 55.169 48.1383L56.193 49.1623C57.7551 50.7244 57.7551 53.2571 56.193 54.8192L54.8192 56.193C53.2571 57.7551 50.7245 57.7551 49.1624 56.193L48.1383 55.1689C46.8331 53.8637 44.8177 53.6605 43.1155 54.3744C43.0733 54.3921 43.0311 54.4096 42.9888 54.4271C42.9793 54.431 42.9699 54.4348 42.9604 54.4387C41.2527 55.1388 39.9714 56.7076 39.9714 58.5532V60C39.9714 62.2091 38.1806 64 35.9714 64H34.0286C31.8194 64 30.0286 62.2091 30.0286 60V58.5532C30.0286 56.7076 28.7473 55.1388 27.0396 54.4387C26.9878 54.4175 26.9361 54.3961 26.8845 54.3744C25.1823 53.6606 23.1669 53.8637 21.8617 55.1689L20.8377 56.193C19.2756 57.7551 16.7429 57.7551 15.1808 56.193L13.807 54.8192C12.2449 53.2571 12.2449 50.7244 13.807 49.1623L14.8311 48.1383C16.1363 46.8331 16.3394 44.8177 15.6256 43.1155C15.6039 43.0639 15.5825 43.0122 15.5613 42.9604C14.8612 41.2527 13.2924 39.9714 11.4468 39.9714H10C7.79086 39.9714 6 38.1806 6 35.9714V34.0286C6 31.8194 7.79086 30.0286 10 30.0286H11.4468C13.2924 30.0286 14.8612 28.7473 15.5613 27.0396C15.5825 26.9878 15.6039 26.9361 15.6256 26.8845C16.3395 25.1823 16.1363 23.1669 14.8311 21.8617L13.807 20.8377C12.2449 19.2756 12.2449 16.7429 13.807 15.1808L15.1808 13.807C16.7429 12.2449 19.2756 12.2449 20.8377 13.807L21.8617 14.831C23.167 16.1363 25.1823 16.3394 26.8845 15.6256C26.9361 15.6039 26.9878 15.5825 27.0396 15.5613C28.7473 14.8612 30.0286 13.2924 30.0286 11.4468V10Z" fill="black"/>
</svg>
