<svg width="70" height="70" viewBox="0 0 70 70" fill="none" xmlns="http://www.w3.org/2000/svg">
<path fill-rule="evenodd" clip-rule="evenodd" d="M42 15C42 8.92487 46.9249 4 53 4C59.0751 4 64 8.92487 64 15C64 21.0751 59.0751 26 53 26C49.7911 26 46.9031 24.626 44.8923 22.4341L27.6835 32.3696C27.8903 33.2124 28 34.0934 28 35C28 35.9066 27.8903 36.7876 27.6835 37.6304L44.8923 47.5659C46.9031 45.374 49.7911 44 53 44C59.0751 44 64 48.9249 64 55C64 61.0751 59.0751 66 53 66C46.9249 66 42 61.0751 42 55C42 54.2945 42.0664 53.6044 42.1934 52.9359L24.7125 42.8433C22.7273 44.7956 20.0043 46 17 46C10.9249 46 6 41.0751 6 35C6 28.9249 10.9249 24 17 24C20.0043 24 22.7273 25.2044 24.7125 27.1567L42.1934 17.0641C42.0664 16.3955 42 15.7055 42 15ZM53 10C50.2386 10 48 12.2386 48 15C48 17.7614 50.2386 20 53 20C55.7614 20 58 17.7614 58 15C58 12.2386 55.7614 10 53 10ZM17 30C14.2386 30 12 32.2386 12 35C12 37.7614 14.2386 40 17 40C19.7614 40 22 37.7614 22 35C22 32.2386 19.7614 30 17 30ZM48 55C48 57.7614 50.2386 60 53 60C55.7614 60 58 57.7614 58 55C58 52.2386 55.7614 50 53 50C50.2386 50 48 52.2386 48 55Z" fill="black"/>
</svg>
