<svg width="70" height="70" viewBox="0 0 70 70" fill="none" xmlns="http://www.w3.org/2000/svg">
<path d="M23.4954 53.8796L23.4613 53.8912L23.4245 53.9033C23.3576 53.9248 23.2903 53.9443 23.2226 53.9616C21.8128 54.3235 20.2782 53.7757 19.5618 52.4753C18.7612 51.022 19.2861 49.1818 20.8027 48.5088C25.2568 46.5321 30.0854 45.5027 34.9805 45.5C39.8755 45.4973 44.7053 46.5212 49.1616 48.493C50.6789 49.1643 51.2059 51.0039 50.4069 52.4581C49.692 53.7593 48.158 54.3088 46.7477 53.9485C46.6801 53.9312 46.6128 53.9119 46.5458 53.8904C46.5221 53.8828 46.4985 53.8749 46.4749 53.8668C46.4017 53.8416 46.3289 53.8138 46.2568 53.7834C42.6981 52.2839 38.8657 51.5066 34.9838 51.5088C31.1019 51.5109 27.2705 52.2925 23.7134 53.796C23.6413 53.8264 23.5686 53.8543 23.4954 53.8796Z" fill="black"/>
<path fill-rule="evenodd" clip-rule="evenodd" d="M47 30V26C47 19.3726 41.6274 14 35 14C28.3726 14 23 19.3726 23 26V30C23 36.6274 28.3726 42 35 42C41.6274 42 47 36.6274 47 30ZM29 26C29 22.6863 31.6863 20 35 20C38.3137 20 41 22.6863 41 26V30C41 33.3137 38.3137 36 35 36C31.6863 36 29 33.3137 29 30V26Z" fill="black"/>
<path fill-rule="evenodd" clip-rule="evenodd" d="M35 70C54.33 70 70 54.33 70 35C70 15.67 54.33 0 35 0C15.67 0 0 15.67 0 35C0 54.33 15.67 70 35 70ZM35 64C51.0163 64 64 51.0163 64 35C64 18.9837 51.0163 6 35 6C18.9837 6 6 18.9837 6 35C6 51.0163 18.9837 64 35 64Z" fill="black"/>
</svg>
